<?xml version="1.0" encoding="UTF-8"?>
<svg width="974px" height="299px" viewBox="0 0 974 299" version="1.1" xmlns="http://www.w3.org/2000/svg" xmlns:xlink="http://www.w3.org/1999/xlink">
    <!-- Generator: Sketch 43.2 (39069) - http://www.bohemiancoding.com/sketch -->
    <title>Mural (2)</title>
    <desc>Created with Sketch.</desc>
    <defs></defs>
    <g id="Page-1" stroke="none" stroke-width="1" fill="none" fill-rule="evenodd">
        <g id="Mural-(2)" fill-rule="nonzero">
            <g id="Group" transform="translate(306.000000, 69.000000)" fill-opacity="0.95" fill="#F3F3F3">
                <path d="M0.286,179.998 L0.286,13.023 C0.286,11.259 0.605,9.594 1.248,8.03 C1.889,6.467 2.791,5.103 3.955,3.94 C5.117,2.778 6.461,1.876 7.985,1.233 C9.507,0.592 11.192,0.271 13.037,0.271 C18.009,0.271 21.778,2.557 24.345,7.127 L96.525,151.366 L168.705,7.127 C171.592,2.556 175.361,0.271 180.013,0.271 C181.776,0.271 183.441,0.592 185.005,1.233 C186.569,1.876 187.932,2.778 189.095,3.94 C190.257,5.103 191.159,6.466 191.802,8.03 C192.443,9.594 192.764,11.259 192.764,13.023 L192.764,179.998 C192.764,183.528 191.52,186.536 189.035,189.02 C186.548,191.507 183.54,192.749 180.013,192.749 C176.483,192.749 173.475,191.507 170.991,189.02 C168.504,186.536 167.262,183.528 167.262,179.998 L167.262,67.157 L107.594,186.374 C105.107,190.626 101.418,192.75 96.527,192.75 C91.234,192.75 87.343,190.185 84.858,185.051 L25.79,67.157 L25.79,179.998 C25.79,183.528 24.545,186.536 22.061,189.02 C19.574,191.507 16.567,192.749 13.039,192.749 C9.509,192.749 6.502,191.507 4.017,189.02 C1.528,186.536 0.286,183.528 0.286,179.998 Z" id="Shape"></path>
                <path d="M324.853,192.75 C321.245,192.75 318.276,191.547 315.951,189.141 C313.625,186.736 312.422,183.809 312.343,180.36 C306.809,184.691 300.954,187.839 294.78,189.803 C288.603,191.769 281.908,192.75 274.689,192.75 C266.107,192.75 258.007,191.087 250.389,187.758 C242.769,184.431 236.113,179.919 230.419,174.224 C224.724,168.531 220.213,161.874 216.886,154.254 C213.557,146.636 211.893,138.536 211.893,129.954 L211.893,70.526 C211.893,67.079 213.116,64.131 215.563,61.683 C218.008,59.238 220.995,58.014 224.525,58.014 C227.972,58.014 230.92,59.238 233.367,61.683 C235.812,64.131 237.036,67.079 237.036,70.526 L237.036,129.954 C237.036,135.168 238.017,140.058 239.983,144.63 C241.948,149.202 244.633,153.193 248.044,156.601 C251.451,160.01 255.442,162.697 260.014,164.661 C264.585,166.627 269.476,167.608 274.69,167.608 C279.822,167.608 284.675,166.627 289.247,164.661 C293.818,162.697 297.828,159.99 301.277,156.541 C304.724,153.094 307.43,149.103 309.397,144.571 C311.361,140.041 312.344,135.169 312.344,129.955 L312.344,70.527 C312.344,67.08 313.566,64.132 316.013,61.684 C318.458,59.239 321.446,58.015 324.975,58.015 C328.422,58.015 331.37,59.239 333.818,61.684 C336.263,64.132 337.487,67.08 337.487,70.527 L337.487,180.24 C337.487,183.689 336.263,186.636 333.818,189.082 C331.367,191.528 328.381,192.75 324.853,192.75 Z" id="Shape"></path>
                <path d="M381.032,70.526 L381.032,72.931 C387.047,68.119 393.583,64.432 400.64,61.864 C407.697,59.299 415.236,58.014 423.257,58.014 C426.784,58.014 430.574,58.255 434.625,58.736 C438.674,59.217 442.402,60.081 445.813,61.323 C449.221,62.567 452.047,64.27 454.294,66.435 C456.538,68.601 457.662,71.409 457.662,74.856 C457.662,76.622 457.319,78.266 456.64,79.789 C455.957,81.313 455.055,82.657 453.933,83.819 C452.809,84.982 451.486,85.884 449.963,86.525 C448.439,87.169 446.794,87.488 445.03,87.488 C443.506,87.488 441.741,87.049 439.737,86.165 C434.684,84.161 429.19,83.157 423.257,83.157 C417.402,83.157 411.907,84.261 406.776,86.466 C401.642,88.673 397.171,91.68 393.363,95.488 C389.552,99.298 386.546,103.769 384.341,108.901 C382.134,114.035 381.032,119.529 381.032,125.382 L381.032,180.238 C381.032,183.687 379.808,186.634 377.363,189.08 C374.916,191.527 371.968,192.749 368.521,192.749 C364.991,192.749 362.003,191.527 359.558,189.08 C357.111,186.635 355.889,183.687 355.889,180.238 L355.889,70.526 C355.889,67.079 357.111,64.131 359.558,61.683 C362.003,59.238 364.991,58.014 368.521,58.014 C371.968,58.014 374.916,59.238 377.363,61.683 C379.809,64.132 381.032,67.079 381.032,70.526 Z" id="Shape"></path>
                <path d="M581.451,180.239 L581.451,177.833 C575.435,182.645 568.898,186.335 561.842,188.9 C554.784,191.467 547.244,192.75 539.226,192.75 C520.62,192.75 504.74,186.175 491.587,173.021 C478.434,159.87 471.858,143.99 471.858,125.383 C471.858,106.778 478.433,90.899 491.587,77.744 C504.739,64.592 520.619,58.015 539.226,58.015 C557.671,58.015 573.551,64.592 586.865,77.744 C600.017,90.898 606.594,106.777 606.594,125.383 L606.594,180.239 C606.594,183.688 605.37,186.635 602.924,189.081 C600.477,191.528 597.529,192.75 594.082,192.75 C590.552,192.75 587.565,191.528 585.12,189.081 C582.673,186.636 581.451,183.688 581.451,180.239 Z M539.226,83.157 C533.29,83.157 527.756,84.281 522.625,86.525 C517.491,88.772 513.04,91.799 509.271,95.608 C505.5,99.419 502.513,103.89 500.308,109.021 C498.102,114.155 497,119.608 497,125.382 C497,131.156 498.102,136.611 500.308,141.742 C502.513,146.876 505.5,151.347 509.271,155.155 C513.04,158.966 517.491,161.994 522.625,164.238 C527.756,166.484 533.29,167.606 539.226,167.606 C545.08,167.606 550.574,166.484 555.707,164.238 C560.838,161.994 565.311,158.945 569.12,155.095 C572.929,151.245 575.935,146.776 578.142,141.681 C580.347,136.589 581.451,131.156 581.451,125.381 C581.451,119.606 580.347,114.174 578.142,109.08 C575.935,103.988 572.928,99.517 569.12,95.667 C565.31,91.817 560.838,88.771 555.707,86.523 C550.573,84.281 545.079,83.157 539.226,83.157 Z" id="Shape"></path>
                <path d="M624.638,180.239 L624.638,12.902 C624.638,9.375 625.821,6.387 628.187,3.94 C630.551,1.495 633.541,0.271 637.149,0.271 C640.758,0.271 643.745,1.495 646.112,3.94 C648.476,6.387 649.661,9.375 649.661,12.902 L649.661,167.607 L655.435,167.607 C658.882,167.607 661.83,168.831 664.277,171.276 C666.722,173.723 667.946,176.711 667.946,180.239 C667.946,183.688 666.722,186.635 664.277,189.081 C661.83,191.528 658.882,192.75 655.435,192.75 L637.029,192.75 C633.58,192.75 630.653,191.528 628.248,189.081 C625.841,186.636 624.638,183.688 624.638,180.239 Z" id="Shape"></path>
            </g>
            <g id="Group" fill-opacity="0.8" fill="#FFFFFF">
                <polygon id="Shape" points="0.681 20.506 0.681 298.486 187.423 298.486 278.662 196.79 278.662 20.506"></polygon>
                <path d="M249.327,83.448 C249.327,85.976 247.27,88.033 244.742,88.033 L236.943,88.033 C234.415,88.033 232.358,85.975 232.358,83.448 L232.358,40.663 C232.358,39.209 231.18,38.033 229.727,38.033 C228.274,38.033 227.096,39.21 227.096,40.663 L227.096,83.448 C227.096,88.878 231.514,93.296 236.944,93.296 L244.743,93.296 C250.172,93.296 254.591,88.879 254.591,83.448 L254.591,20.506 L249.327,20.506 L249.327,83.448 Z" id="Shape" opacity="0.92"></path>
                <path d="M234.971,0.925 L231.059,0.925 C222.416,0.925 215.387,7.955 215.387,16.596 L215.387,20.506 L220.649,20.506 L220.649,16.596 C220.649,10.858 225.319,6.187 231.059,6.187 L234.971,6.187 C240.711,6.187 245.381,10.857 245.381,16.596 L245.381,80.818 C245.381,83.346 243.324,85.401 240.796,85.401 L232.996,85.401 C230.468,85.401 228.411,83.345 228.411,80.818 L228.411,38.033 C228.411,36.579 227.233,35.401 225.78,35.401 C224.327,35.401 223.149,36.579 223.149,38.033 L223.149,80.818 C223.149,86.247 227.567,90.664 232.996,90.664 L240.796,90.664 C246.225,90.664 250.643,86.247 250.643,80.818 L250.643,16.596 C250.643,7.955 243.613,0.925 234.971,0.925 Z" id="Shape"></path>
                <polygon id="Shape" points="187.423 298.486 187.423 196.79 278.662 196.79"></polygon>
            </g>
        </g>
    </g>
</svg>
